<?xml version="1.0" encoding="utf-8"?>
<!-- Generator: Adobe Illustrator 21.1.0, SVG Export Plug-In . SVG Version: 6.00 Build 0)  -->
<svg version="1.1" id="图层_1" xmlns="http://www.w3.org/2000/svg" xmlns:xlink="http://www.w3.org/1999/xlink" x="0px" y="0px"
	 viewBox="0 0 280 176" style="enable-background:new 0 0 280 176;" xml:space="preserve">
<style type="text/css">
	.st0{fill:#95CACA;}
	.st1{fill:#EF78A9;}
	.st2{fill:#FEE89D;}
	.st3{opacity:0.3;fill:#FFFFFF;}
	.st4{opacity:0.1;fill:#FFFFFF;}
</style>
<path class="st0" d="M178.7,86.6c-4.6-23.6-25.4-48.8-39.8-48.8c-14.2,0-34,25.5-37.9,50.2c-3.9,24.8,6.9,51.5,41.7,50.1
	C174.2,136.9,183,108.8,178.7,86.6z"/>
<path class="st1" d="M140,87.7c0,0-6.2-12.8-13.5-8.7c-7.3,4.1,4.6,28.5,14.3,26.7c9.7-1.8,19.7-24.7,12.5-27.6
	C146,75.2,140,87.7,140,87.7z"/>
<path class="st2" d="M130.3,61.2c-1.7,0-1.7,2.6,0,2.6C132.1,63.8,132.1,61.2,130.3,61.2z"/>
<g>
	<path class="st2" d="M161.5,113.6c-0.2-0.9-1.5-1.5-2.4-0.9c0,0-0.1,0-0.1,0.1c-0.7,0.2-1.2,0.9-0.9,1.9c0,0,0,0,0,0
		c0.6,1.7,2.8,1.4,3.3,0c0,0,0,0,0,0c0,0,0,0,0,0C161.6,114.2,161.6,113.9,161.5,113.6z"/>
	<path class="st2" d="M168.1,104.7c-0.3-0.3-1-0.6-1.5-0.4c-0.5,0.2-1,0.4-1.2,0.8c-0.3,0.6-0.3,1.4,0.3,1.9c0.5,0.5,1.3,0.6,2,0.2
		c0.5-0.2,0.7-0.7,0.9-1.2C168.7,105.6,168.4,105,168.1,104.7z"/>
	<path class="st2" d="M173.5,96.2c-0.4-0.3-1-0.6-1.5-0.4l-0.1,0c-0.6,0.2-1.1,0.7-1.1,1.4s0.5,1.2,1.1,1.4l0.1,0
		c0.4,0.1,0.9,0,1.2-0.1c0.5-0.3,0.8-0.7,0.8-1.3C174,96.8,173.8,96.5,173.5,96.2z"/>
	<g>
		<path class="st2" d="M139.8,64.9c0-0.7-0.4-1.5-1.1-1.8c-0.8-0.4-1.5-0.4-2.2,0c-0.7,0.3-1.1,1.1-1.1,1.8c0,1.3,0,2.7,0,4
			c0,1.5-0.2,3.2,0.5,4.6c0.6,1.2,2.7,1.2,3.3,0c0.6-1.3,0.5-2.9,0.5-4.3C139.7,67.8,139.8,66.3,139.8,64.9z"/>
		<path class="st2" d="M129.3,70.4c-0.3-1.3-0.6-2.7-1.6-3.7c-1-0.9-2.7-0.2-2.6,1c0,1.2,0.7,2.3,1.2,3.4c0.5,1.1,0.9,2.2,1.5,3.2
			c0.6,0.9,2.2,0.5,2.1-0.6C129.8,72.7,129.6,71.5,129.3,70.4z"/>
		<path class="st2" d="M122.8,78.2c-0.6-0.7-1.2-1.4-1.7-2.2c-0.6-0.9-1.3-2-2.1-2.7c-1.2-0.9-3.2-0.1-2.7,1.5
			c0.4,1.1,1.3,2,2.1,2.9c0.8,0.8,1.8,1.6,2.8,2C122.1,80.2,123.5,79.2,122.8,78.2z"/>
		<path class="st2" d="M120.5,86.3c-0.7-0.2-1.3-0.3-2.1-0.4c-0.7,0-1.4-0.2-2.1-0.1c-2.2,0.2-2.2,3.1,0,3.2
			c0.8,0.1,1.7-0.1,2.5-0.2c0.9-0.2,1.4-0.5,2.1-1C121.4,87.4,121.1,86.5,120.5,86.3z"/>
		<path class="st2" d="M122.4,94.3c-1.2-0.2-2.2-0.1-3.4,0.2c-1,0.3-2.2,0.7-3.1,1.3c-0.6,0.4-1,1.1-0.8,1.9
			c0.2,0.8,1.2,1.5,2.1,1.2c1.8-0.6,3.2-2,5.1-2.5C123.4,96,123.5,94.4,122.4,94.3z"/>
		<path class="st2" d="M124.5,99.9c-1,0.5-1.9,1.1-2.8,1.8c-1,0.8-2,1.6-2,2.9c0,0.7,0.8,1.3,1.5,1.1c1.2-0.3,1.8-1.2,2.6-2
			c0.8-0.8,1.6-1.5,2.3-2.3C126.8,100.4,125.4,99.5,124.5,99.9z"/>
		<path class="st2" d="M128.9,106.5C128.8,106.5,128.8,106.5,128.9,106.5c-0.3,0.1-0.4,0.2-0.6,0.3c-0.4,0.2-0.6,0.5-0.9,0.8
			c-0.5,0.5-1.1,1.1-1.4,1.8c-0.8,1.8,1.5,3.2,2.8,1.6c0.4-0.5,0.6-1.1,0.9-1.7c0.2-0.4,0.4-0.8,0.5-1.2c0-0.2,0.1-0.4,0.1-0.6
			c0-0.1,0-0.1,0-0.2C130.4,106.6,129.4,106.1,128.9,106.5z"/>
		<path class="st2" d="M137.1,109.5c-0.3-1.1-2.2-0.9-2.1,0.3c0.1,1.2,0,2.4-0.2,3.7c-0.4,1.9,2.5,2.3,2.7,0.4
			C137.7,112.3,137.5,110.9,137.1,109.5z"/>
		<path class="st2" d="M146.6,112c-0.3-0.6-0.9-1.2-1.3-1.7c-0.4-0.6-0.8-1.1-1.2-1.7c-0.7-1.1-2.9-0.4-2.3,0.9
			c0.3,0.7,0.7,1.4,1.1,2.1c0.5,0.7,0.9,1.4,1.6,2C145.6,114.6,147.3,113.3,146.6,112z"/>
		<path class="st2" d="M152.5,105.2c-0.7-0.7-1.5-1.3-2.3-1.9c-0.5-0.4-1.2,0-1,0.6c0.2,1.1,0.7,2,1.3,2.9c0.6,0.9,1.7,2.2,3,1.7
			c0.5-0.2,0.8-0.5,0.8-1C154.3,106.4,153.2,105.8,152.5,105.2z"/>
		<path class="st2" d="M161.1,99c-1.5-0.8-3.4-1.4-5.1-1.6c-0.5,0-0.8,0.6-0.6,1c0.4,0.7,1,1.1,1.7,1.5c0.9,0.5,1.7,0.9,2.6,1.4
			c0.6,0.3,1.2,0.2,1.7-0.2c0.2-0.1,0.3-0.4,0.4-0.6C161.9,99.8,161.7,99.3,161.1,99z"/>
		<path class="st2" d="M162.3,92.4c-1.1-0.6-2.3-1-3.6-1.3c-0.7-0.1-1.4,0.7-0.8,1.3c0.9,0.8,1.9,1.7,3,2.2c0.4,0.2,0.9,0.3,1.3,0
			c0.4-0.3,0.6-0.6,0.7-1.1C162.9,93,162.7,92.6,162.3,92.4z"/>
		<path class="st2" d="M166.1,84.3c-0.8-0.1-1.6,0-2.3,0.1c-0.7,0-1.4,0-2.1,0.1c-0.8,0.1-1.3,1-0.7,1.6c0.6,0.6,1.4,0.8,2.2,0.9
			c1,0.1,2,0.3,3,0.2C168.1,87,168.1,84.5,166.1,84.3z"/>
		<path class="st2" d="M163.3,75.9c-0.7-0.3-1.3,0.3-1.8,0.7c-0.4,0.3-0.8,0.6-1.2,0.9c-0.6,0.4-0.3,1.4,0.5,1.2
			c0.5-0.2,1-0.3,1.5-0.5c0.8-0.3,1.7-0.5,1.7-1.4C164,76.3,163.7,76.1,163.3,75.9z"/>
		<path class="st2" d="M146.7,66.3c-0.8,0.9-1.2,2.1-1.6,3.2c-0.5,1.3-0.8,2.6-1.1,4c-0.3,1.3,1.4,2,2.2,0.9c0.7-1,1.4-2,1.9-3.1
			c0.6-1.2,1.3-2.5,1.4-3.8C149.7,66.1,147.6,65.3,146.7,66.3z"/>
		<path class="st2" d="M158.1,69.7C158.1,69.7,158.1,69.7,158.1,69.7c-0.2-0.2-0.6-0.2-0.9-0.2c0,0,0,0-0.1,0c0,0-0.1,0-0.1,0
			c-0.1,0-0.3,0.1-0.4,0.2c-0.1,0-0.1,0.1-0.2,0.1c-1.4,1.4-2.6,3.3-3,5.1c-0.2,0.9,1.2,1.6,1.6,0.7c0.9-1.7,2.5-2.7,3.6-4.2
			C159.2,70.8,158.7,70.1,158.1,69.7z"/>
		<path class="st2" d="M131.7,61.6C131.7,61.6,131.7,61.6,131.7,61.6c-0.6-0.6-1.7-0.6-2.3,0c-0.6,0.6-0.6,1.6,0,2.2c0,0,0,0,0,0
			c0.6,0.6,1.7,0.6,2.3,0C132.3,63.2,132.3,62.2,131.7,61.6z"/>
		<path class="st2" d="M146.3,60.6c-0.3-1.1-1.6-1.7-2.6-1.3c0,0-0.1,0-0.1,0c0,0,0,0,0,0c-0.6,0.2-1,0.7-1.2,1.2
			c-0.2,0.8,0.1,1.7,0.9,2.1c0.3,0.2,0.7,0.3,1.1,0.3c0.5,0,1-0.2,1.4-0.6C146.3,62,146.5,61.3,146.3,60.6z"/>
		<ellipse class="st2" cx="137.4" cy="56.2" rx="1" ry="0.9"/>
		<path class="st2" d="M153.4,60c-0.4-0.4-0.9-0.5-1.4-0.4c-0.3,0-0.5,0.2-0.7,0.4c-0.4,0.4-0.5,0.8-0.4,1.3c0.1,0.5,0.6,0.9,1.1,1
			c0.9,0.2,1.9-0.4,1.9-1.4C153.9,60.6,153.7,60.2,153.4,60z"/>
		<path class="st2" d="M155.4,64.5c-0.7,0-1.3,0.6-1.3,1.3c0,0.7,0.6,1.3,1.3,1.3c0.7,0,1.3-0.6,1.3-1.3
			C156.7,65.1,156.1,64.5,155.4,64.5z"/>
		<path class="st2" d="M163.8,66.9c-0.1-0.4-0.4-0.7-0.7-0.9c-0.7-0.3-1.6-0.1-1.8,0.7c-0.2,0.8,0.5,1.5,1.3,1.5c0.4,0,0.7,0,1-0.3
			C163.8,67.7,163.9,67.3,163.8,66.9z"/>
		<path class="st2" d="M130.3,55.8c-1.4,0-1.4,2,0,2C131.7,57.8,131.7,55.8,130.3,55.8z"/>
		<path class="st2" d="M122.4,60.6c-2,0-2,3,0,3C124.4,63.5,124.4,60.6,122.4,60.6z"/>
		<path class="st2" d="M117.6,66.6c-1.1,0-1.1,1.7,0,1.7C118.7,68.3,118.7,66.6,117.6,66.6z"/>
		<path class="st2" d="M110.7,74.4c-0.9,0-1.6,0.7-1.6,1.5c0,0.8,0.7,1.5,1.6,1.5c0.9,0,1.6-0.7,1.6-1.5
			C112.3,75.1,111.6,74.4,110.7,74.4z"/>
		<path class="st2" d="M112.1,81.3C112.1,81.3,112.1,81.3,112.1,81.3c0-0.1-0.1-0.1-0.1-0.2c-0.2-0.8-1.5-0.8-1.7,0c0,0,0,0.1,0,0.1
			c0,0,0,0,0,0.1c-0.2,0.3-0.2,0.7,0,1c0.2,0.3,0.5,0.5,0.9,0.5c0.4,0,0.7-0.2,0.9-0.5C112.3,82,112.3,81.6,112.1,81.3z"/>
		<path class="st2" d="M106.6,87.5c-1.7,0-1.7,2.5,0,2.5C108.3,90,108.3,87.5,106.6,87.5z"/>
		<path class="st2" d="M110.1,90c-2.5,0-2.5,3.7,0,3.7C112.5,93.6,112.5,90,110.1,90z"/>
		<path class="st2" d="M110.1,99.8c-0.3-0.3-0.9-0.4-1.3-0.2c-0.2,0.2-0.5,0.3-0.6,0.6c-0.2,0.4-0.2,0.9,0.2,1.3
			c0.4,0.4,0.9,0.4,1.3,0.2c0.3-0.1,0.4-0.3,0.6-0.6C110.6,100.6,110.5,100.1,110.1,99.8z"/>
		<path class="st2" d="M114.6,102.5c-0.9,0-1.6,0.7-1.6,1.5c0,0.8,0.7,1.5,1.6,1.5c0.9,0,1.6-0.7,1.6-1.5
			C116.2,103.2,115.5,102.5,114.6,102.5z"/>
		<path class="st2" d="M115.3,110.9c-1.8,0-1.8,2.6,0,2.6C117.1,113.5,117.1,110.9,115.3,110.9z"/>
		<path class="st2" d="M121.5,111.4c-1.5,0-1.5,2.2,0,2.2C122.9,113.5,122.9,111.4,121.5,111.4z"/>
		<path class="st2" d="M124.2,119.4c-2.1,0-2.1,3.1,0,3.1C126.3,122.5,126.3,119.4,124.2,119.4z"/>
		<path class="st2" d="M128.5,115.9c-1.7,0-1.7,2.6,0,2.6C130.2,118.5,130.2,115.9,128.5,115.9z"/>
		<path class="st2" d="M135.1,120.5c-0.8,0-1.5,0.7-1.5,1.5c0,0.8,0.7,1.5,1.5,1.5c0.8,0,1.5-0.7,1.5-1.5
			C136.7,121.2,136,120.5,135.1,120.5z"/>
		<g>
			<path class="st2" d="M142.4,116.6c-0.3-0.3-0.8-0.5-1.2-0.3c-0.1,0-0.2,0.1-0.4,0.1c-0.1,0-0.1,0-0.1,0c-0.4,0.2-0.7,0.7-0.7,1.1
				c0,0,0,0,0,0c0,0.5,0.4,1.2,1,1.2c0.3,0,0.5,0.1,0.7,0c0.3-0.1,0.6-0.3,0.8-0.6c0.1-0.2,0.2-0.4,0.2-0.6
				C142.9,117.4,142.7,116.9,142.4,116.6z"/>
			<path class="st2" d="M140.7,116.5c0.1,0,0.2-0.1,0.3-0.1C140.8,116.4,140.7,116.5,140.7,116.5z"/>
		</g>
		<path class="st2" d="M149.1,119.2c-0.8,0-1.5,0.6-1.5,1.4c0,0.8,0.7,1.4,1.5,1.4c0.8,0,1.5-0.6,1.5-1.4
			C150.5,119.9,149.9,119.2,149.1,119.2z"/>
		<path class="st2" d="M150.4,113.4c-1.6,0-1.6,2.4,0,2.4C152,115.8,152,113.4,150.4,113.4z"/>
		<path class="st2" d="M160.2,105.9c-1.5,0-1.5,2.3,0,2.3C161.7,108.2,161.7,105.9,160.2,105.9z"/>
		<path class="st2" d="M167.8,97.9C167.8,97.9,167.8,97.8,167.8,97.9c0-0.4-0.2-0.7-0.5-1c-0.2-0.2-0.5-0.3-0.7-0.3
			c-0.3,0-0.5,0.1-0.7,0.3c-0.3,0.2-0.5,0.5-0.5,0.9c0,0,0,0,0,0.1c0,0.1,0,0.2,0,0.3c0.1,0.6,0.5,1,1.2,1c0.6,0,1.1-0.5,1.2-1
			C167.8,98.1,167.8,98,167.8,97.9z"/>
		<path class="st2" d="M168,91.2c-0.5-0.1-0.9,0-1.2,0.4c-0.3,0.2-0.5,0.6-0.5,0.9c0,0.6,0.5,1.1,1.2,1.1c0.8,0,1.3-0.6,1.4-1.3
			C168.9,91.8,168.5,91.3,168,91.2z"/>
		<path class="st2" d="M171.6,87.1c-1.4,0-1.4,2.1,0,2.1C173,89.2,173,87.1,171.6,87.1z"/>
		<path class="st2" d="M166.6,77.9c-1.7,0-1.7,2.6,0,2.6C168.3,80.5,168.3,77.9,166.6,77.9z"/>
		<path class="st2" d="M171.6,75.7c-0.6,0-1.2,0.5-1.2,1.1s0.5,1.1,1.2,1.1c0.6,0,1.2-0.5,1.2-1.1S172.2,75.7,171.6,75.7z"/>
		<path class="st2" d="M166.4,72.3C166.4,72.3,166.4,72.3,166.4,72.3c0,0,0-0.1,0-0.1c0.1-0.2,0.1-0.5,0-0.8c0,0,0-0.1,0-0.1
			c0,0,0,0,0,0c-0.1-0.3-0.4-0.6-0.8-0.6c-0.3-0.1-0.6-0.1-0.8,0.1c-0.5,0.2-0.7,0.6-0.6,1c0,0.4,0.1,0.9,0.6,1
			c0.2,0.1,0.5,0.2,0.8,0.1C166,72.9,166.2,72.6,166.4,72.3z"/>
		<ellipse class="st2" cx="143.7" cy="55.4" rx="1" ry="1"/>
	</g>
</g>
<g>
	<path class="st3" d="M128.3,50.8c-4.1,0.4-7.2,3.1-9.7,6c-2.5,3-4.7,6.6-5.4,10.3c-0.3,1.5,0.9,3.3,2.7,3.1c0.5,0.1,1.1,0,1.6-0.3
		c0.3-0.2,0.7-0.5,1-0.7c3.4-1.8,6.2-4.8,8.6-7.9c1-1.3,2-2.6,2.7-4c0.2-0.3,0.4-0.6,0.5-0.9c0.3-0.5,0.4-1,0.3-1.4
		c0.2-0.6,0.3-1.1,0.3-1.7C130.9,51.9,129.5,50.6,128.3,50.8z"/>
	<path class="st3" d="M136,44.6c-0.8-0.4-1.8-0.7-2.7-0.7c-0.9,0-1.9,0.3-2.5,1c-0.8,0.9-1,2.1-0.3,3.2c0.6,0.9,1.6,1.4,2.7,1.7
		c0.7,0.2,1.7,0,2.2-0.6c0.3-0.3,0.6-0.7,0.7-1.1c0.1-0.1,0.2-0.2,0.3-0.3C137.4,46.9,137.3,45.3,136,44.6z"/>
</g>
<path class="st4" d="M175.9,96.3c-0.4-2.3-1.4-4.4-3.1-6.1c-0.4-0.4-1-0.7-1.6-0.7c-0.6-0.2-1.3-0.1-1.6,0.5
	c-0.3,0.2-0.5,0.4-0.7,0.7c-1.8,2.8-2.4,6.1-3,9.2c-0.5,1.3-0.9,2.6-1.5,3.9c-1.8,4.3-4.3,8.3-7.4,11.8c-3,3.5-6.6,6.4-10.7,8.7
	c-2.5,1.3-7.8,5-4,7.9c3.1,2.4,8-0.1,11-1.5c4.3-2,8.1-4.7,11.3-8C171.1,116.2,177.5,105.7,175.9,96.3z"/>
</svg>
